PathFileType	4	(X/Y/Z)	s08c0403.trc
DataRate	CameraRate	NumFrames	NumMarkers	Units	OrigDataRate	OrigDataStartFrame	OrigNumFrames
200	200	5	50	mm	200	1250	2000
Frame#	Time	racr			lacr			c7			jug			rlel			rdr			llel			ldr			s2			lic			ric			lasi			rasi			rpsi			lpsi			rgt			lgt			rth1			rth2			rth3			rth4			rlfc			rmfc			rsh1			rsh2			rsh3			rsh4			rlmal			rmmal			rcal			rtoe			rmt5			lth1			lth2			lth4			lth3			llfc			lmfc			llmal			lmmal			lcal			lmt5			lsh1			lsh2			lsh3			lsh4			ltoe			SBIKE			LBIKE			RBIKE			
		X1	Y1	Z1	X2	Y2	Z2	X3	Y3	Z3	X4	Y4	Z4	X5	Y5	Z5	X6	Y6	Z6	X7	Y7	Z7	X8	Y8	Z8	X9	Y9	Z9	X10	Y10	Z10	X11	Y11	Z11	X12	Y12	Z12	X13	Y13	Z13	X14	Y14	Z14	X15	Y15	Z15	X16	Y16	Z16	X17	Y17	Z17	X18	Y18	Z18	X19	Y19	Z19	X20	Y20	Z20	X21	Y21	Z21	X22	Y22	Z22	X23	Y23	Z23	X24	Y24	Z24	X25	Y25	Z25	X26	Y26	Z26	X27	Y27	Z27	X28	Y28	Z28	X29	Y29	Z29	X30	Y30	Z30	X31	Y31	Z31	X32	Y32	Z32	X33	Y33	Z33	X34	Y34	Z34	X35	Y35	Z35	X36	Y36	Z36	X37	Y37	Z37	X38	Y38	Z38	X39	Y39	Z39	X40	Y40	Z40	X41	Y41	Z41	X42	Y42	Z42	X43	Y43	Z43	X44	Y44	Z44	X45	Y45	Z45	X46	Y46	Z46	X47	Y47	Z47	X48	Y48	Z48	X49	Y49	Z49	X50	Y50	Z50	
1250	6.2500	843.759085	1408.310334	-134.197899	864.446729	1310.896566	-468.223804	847.303102	1429.631778	-310.035924	803.060416	1279.610517	-284.061557	715.395409	1203.512931	17.142201	763.996171	928.652888	-60.480146	663.421568	1134.540769	-606.305823	753.489351	930.302551	-461.574145	280.575453	1278.509080	-188.477901	412.777497	1201.963265	-362.521174	478.012169	1265.696017	-69.008402	369.091635	1204.927827	-510.864912	477.470018	1191.298933	-111.356553	331.762043	1312.675842	-151.707426	310.568366	1311.095943	-246.728423	392.688929	1153.588248	-11.008552	314.849090	1134.484132	-377.846284	459.530943	989.745629	-32.657185	501.725278	914.576001	-54.134018	501.751016	828.410944	-64.172473	531.668401	925.746963	-71.253856	513.057705	715.109431	-88.314832	472.022537	721.604447	-193.261015	395.330232	661.750705	-45.706037	337.089356	596.057826	-61.593932	255.193625	566.520752	-58.976291	351.663051	575.640129	-95.815442	145.700604	507.850941	-56.857956	169.056079	507.436497	-147.328536	88.696671	562.285968	-104.468494	195.168028	281.539474	-108.361723	133.808871	353.041085	-40.479241	370.024847	1010.522686	-393.319384	426.838764	944.614125	-399.053365	459.752671	960.245335	-394.653809	442.687667	856.972334	-398.576234	481.880372	734.421289	-384.927206	485.115778	704.994288	-281.620194	311.455751	346.831630	-395.533704	352.687280	366.888458	-321.348255	239.857552	330.140662	-357.067788	434.948466	245.713408	-424.146620	430.684006	615.162228	-410.668847	416.585046	531.447054	-397.066875	363.465094	461.346125	-399.314708	438.211546	525.197460	-364.039426	521.701509	266.025726	-358.109272	-199.234690	921.391006	-230.299645	-8.954218	80.043164	-427.199358	-8.997363	80.358903	-29.040969	
1251	6.2550	843.751168	1408.645371	-131.135780	864.375767	1313.398316	-466.229922	847.936495	1430.503010	-306.765521	802.209246	1280.834994	-281.426558	715.002758	1203.665573	20.571604	764.066461	928.862884	-60.375471	664.176071	1137.169705	-604.822079	753.685977	930.469666	-462.344914	279.268420	1276.686138	-191.261197	414.983056	1199.522189	-363.620328	475.852541	1265.898779	-70.272206	373.724827	1201.194675	-500.473806	477.647314	1189.059815	-120.203405	329.879882	1311.374891	-154.195561	309.147590	1308.620243	-248.669938	391.080568	1153.747079	-12.393939	315.453383	1129.336633	-378.513927	459.414507	990.142990	-32.800782	503.691225	916.286936	-54.057225	505.171187	830.054991	-65.667376	533.592543	928.323897	-71.473616	519.690780	718.556433	-90.976738	478.477789	725.064162	-195.989927	401.293500	667.157960	-48.523786	342.009338	602.598711	-63.514366	259.698774	574.243217	-60.619257	355.949825	581.662271	-98.152679	149.620020	517.840576	-57.727642	172.762348	517.204477	-148.252877	92.213526	572.112532	-104.873866	200.000698	291.987203	-108.607669	138.378525	363.235311	-40.735917	368.382724	1004.418575	-393.487082	423.300577	936.695626	-398.287796	456.451349	951.408889	-394.656355	436.792187	848.775476	-396.782663	473.837510	727.137493	-382.365841	475.624318	698.405900	-279.871651	307.937251	338.110286	-395.699383	350.406393	359.067699	-322.584061	236.702759	322.207934	-357.309127	430.937045	235.597296	-423.796886	423.580898	607.754901	-408.893153	410.544932	523.953649	-395.987307	358.426511	453.074139	-398.757543	431.963363	517.861582	-362.813988	518.776168	257.021883	-360.494736	-199.310969	921.481709	-230.075432	-8.953965	80.046189	-427.180461	-9.017718	80.363008	-29.035132	
1252	6.2600	843.886216	1408.802786	-127.951574	864.188190	1316.096211	-464.377502	848.600282	1431.374919	-303.394234	801.331978	1282.075778	-278.813443	714.427082	1203.512110	22.727259	764.228893	929.183035	-60.341863	664.967470	1139.834751	-603.233353	753.930008	930.623278	-463.017312	278.068422	1274.853166	-194.324655	417.202925	1197.168851	-364.754126	473.425004	1266.300629	-71.444454	379.020000	1197.117598	-488.208543	477.856075	1186.771496	-129.436578	328.314837	1310.584769	-156.888493	307.688627	1306.864726	-249.890884	388.303935	1153.796028	-13.118567	316.292763	1124.530378	-379.359481	459.140912	990.603143	-32.830543	505.383798	918.101941	-54.380698	508.946885	832.056653	-67.253535	535.280973	931.026300	-71.533928	526.417629	722.499944	-93.740186	481.661978	729.065509	-197.615821	407.400229	673.040777	-50.642928	347.200599	609.094304	-65.412147	264.502852	582.096273	-62.280671	361.892587	588.187281	-98.825213	153.909703	527.643044	-58.709398	176.864939	526.683905	-149.455854	95.947500	581.902554	-105.315362	205.459873	302.191795	-109.062173	143.502833	373.259845	-40.959676	366.663265	998.250320	-393.831548	419.611358	929.048055	-397.738988	453.478303	942.630694	-393.145117	430.631899	841.002841	-395.540457	465.149049	720.185084	-380.695259	465.423141	692.047084	-278.436660	303.938588	329.592650	-395.841645	347.473667	351.443557	-323.697486	233.028589	314.652742	-357.538639	426.368152	225.598273	-423.478888	415.486233	600.936729	-408.037101	403.804810	516.705707	-395.149217	352.744574	445.153034	-398.390516	425.186794	510.912051	-361.920712	514.356168	246.044905	-360.102047	-199.285825	921.486634	-230.031614	-8.942516	80.071555	-427.201926	-8.982170	80.319363	-29.031895	
1253	6.2650	844.152931	1408.654084	-124.670351	863.831664	1318.967476	-462.367169	849.286509	1432.137117	-299.772441	800.374227	1283.236756	-276.104166	713.755785	1203.296606	25.079678	764.596488	929.516769	-60.296477	665.801292	1142.464091	-601.559747	754.239362	930.717384	-463.619763	276.945305	1272.879250	-197.613277	419.430742	1194.914621	-365.920445	470.868928	1267.206791	-71.686817	385.002959	1192.685653	-473.986577	478.142862	1184.564105	-139.302502	326.677100	1310.274708	-160.249670	307.314884	1304.315372	-253.302616	385.440887	1154.255983	-14.614768	317.375883	1120.058281	-380.460502	458.900964	991.239315	-33.200171	507.225413	920.221944	-55.258392	513.252374	834.604959	-68.922821	537.042241	934.399256	-72.092688	533.328515	726.841462	-96.226740	494.353292	732.068707	-200.865702	413.757078	678.903032	-52.984912	352.682116	615.840942	-67.239658	269.656070	589.736552	-63.912265	366.955392	594.451230	-100.663259	158.449889	537.267404	-59.807653	181.549303	535.720418	-150.170901	99.830341	590.900879	-106.166632	211.698692	312.413027	-109.319153	149.220021	383.065399	-41.254954	364.867778	992.415485	-394.339854	415.706612	921.630025	-397.353589	450.031936	934.266359	-392.692376	424.113541	833.052714	-393.936287	456.362706	713.242694	-378.900076	454.739611	685.792685	-277.435116	299.238277	321.657321	-395.991453	343.848504	344.003689	-324.647821	228.937552	307.541849	-357.714870	421.172878	215.999291	-423.266574	406.938666	594.146250	-407.213843	396.498857	509.833847	-394.706445	346.487994	437.466340	-398.180884	417.838729	505.318681	-363.599361	509.343826	235.368375	-359.774550	-199.345203	921.441268	-230.210933	-8.903981	80.126950	-427.241648	-8.933591	80.365880	-29.079083	
1254	6.2700	844.613793	1408.399628	-121.271154	863.376208	1321.974416	-460.180303	849.898171	1432.613976	-296.019635	799.631572	1284.072250	-273.046074	713.032999	1202.957712	27.512142	764.994703	929.864229	-60.321180	666.803471	1145.204066	-600.405420	754.565606	930.734363	-463.988344	276.109732	1271.284758	-201.576599	421.660146	1192.770990	-367.117195	468.061229	1267.865932	-72.555081	391.699510	1187.888141	-457.725332	478.495244	1182.463000	-149.234650	324.995106	1308.624999	-163.878941	307.059662	1301.862026	-257.061371	381.992512	1154.829621	-15.813580	318.733545	1116.116243	-381.711855	458.871609	992.554997	-33.630790	509.577084	923.148091	-56.198832	518.087379	837.835915	-70.495377	538.844143	938.198998	-72.917779	540.080577	731.314801	-98.522317	501.062839	736.960914	-202.315491	420.323599	684.677342	-55.071476	358.670311	622.110658	-68.680999	275.035172	597.344288	-65.460446	372.376821	600.860427	-102.395455	163.342095	546.439703	-60.910391	186.330676	544.859877	-151.405105	103.810174	599.699547	-106.973123	218.690597	322.550501	-109.597590	155.604562	392.517149	-41.598189	362.881766	987.003701	-395.100356	411.729713	914.781111	-397.234915	446.301773	926.450602	-392.410050	417.503336	826.096261	-393.238876	446.751490	706.672962	-377.770813	443.451318	679.782478	-276.843374	294.051136	314.122880	-396.205604	339.490305	336.735784	-325.394511	224.364863	300.872427	-357.832962	415.495255	206.726785	-422.996733	397.860876	587.602732	-406.974878	388.722103	503.276356	-394.578653	339.826769	430.060296	-398.181731	410.136039	498.878823	-363.477005	502.856417	222.672001	-356.516961	-199.297989	921.331298	-230.525151	-8.898053	80.125393	-427.249491	-8.928466	80.530036	-28.956394	
